<svg version="1.1" xmlns="http://www.w3.org/2000/svg" viewBox="0 0 3862 1024">
<path fill="#23b2a9" d="M613.575 399.561c-49.845 42.335-28.883 109.18-8.418 147.059 25.665 47.287-7.097 117.020-51.908 156.467 108.932-61.893 183.287-177.428 187.414-310.706-33.836-22.116-90.612-23.85-127.089 7.179z"></path>
<path fill="#71be45" d="M353.787 506.1c-71.467-60.573-134.020-31.277-176.686 18.816-43.243 50.753 16.339 65.938 97.709 84.423 61.399 13.947 53.806 97.379 59.501 116.113 73.365-118.423 52.238-191.623 19.476-219.351z"></path>
<path fill="#2cb5e5" d="M468.662 136.967c121.806 94.573 14.689 142.85 14.689 142.85 69.156 58.757 139.137-53.806 214.235 10.48 19.888 17.001 32.598 37.631 42.005 59.748-12.626-153.661-119.083-280.831-262.016-323.909-56.116 24.675-78.481 56.86-8.913 110.83z"></path>
<path fill="#1b4d4a" d="M174.378 463.104c-27.645-75.51 7.51-110.336 127.501-195.749 151.598-107.942-85.496-69.651 10.976-166.865 34.166-34.413 82.195-61.151 117.68-85.248-19.558-3.136-39.612-4.869-60.078-4.869-204.661 0-370.536 165.874-370.536 370.453 0 8.252 0.33 16.339 0.908 24.427 55.87 51.825 125.107 85.413 173.549 57.85z"></path>
<path fill="#1b4d4a" d="M933.194 175.424h154.898c63.297 0 119.413 0 153.248 48.525 14.689 21.786 21.786 52.898 21.786 79.059 0 21.292-4.374 42.005-13.122 59.995-33.258 68.743-104.147 70.311-156.55 71.467h-63.792v126.015h-96.554v-385.060zM1029.747 246.312v116.69h57.767c35.981 0 79.636-1.073 79.636-60.573 0-56.2-48.525-56.2-76.336-56.2h-61.069z"></path>
<path fill="#1b4d4a" d="M1315.861 174.846h173.632c40.437 0.578 90.612 1.073 126.181 39.281 17.991 20.218 30.617 50.753 30.617 85.743 0 77.574-52.981 96.636-79.224 106.539l89.044 153.992h-106.457l-76.418-137.651h-60.655v137.651h-96.636v-385.556zM1412.579 246.973v104.311h79.719c13.617-0.578 57.85-1.65 57.85-52.981 0-49.185-35.486-50.753-55.704-51.331h-81.865z"></path>
<path fill="#1b4d4a" d="M1882.146 571.377c-122.136 0-191.457-93.831-191.457-205.074 0-104.147 66.020-202.846 189.807-202.846 22.86 0 46.874 3.301 70.311 11.471 117.763 40.932 125.437 169.093 125.437 195.253 0 66.514-30.534 126.511-73.035 160.841-37.631 31.029-81.287 40.355-121.064 40.355zM1948.66 271.977c-16.339-17.413-41.427-28.389-67.588-28.389-58.345 0-95.481 51.248-95.481 121.064 0 91.603 51.248 125.437 96.554 125.437 45.801 0 94.903-32.68 97.627-113.389 1.568-40.437-9.325-81.287-31.112-104.723z"></path>
<path fill="#1b4d4a" d="M2598.047 570.222c-117.267 0-192.531-82.359-192.531-202.351 0-142.85 98.7-202.351 194.181-202.351 107.942 0 193.603 73.117 193.603 198.472 0 115.699-67.67 206.229-195.253 206.229zM2599.698 207.031c-97.049 0-138.559 74.685-138.559 161.419 0 80.709 39.777 161.419 139.055 161.419 103.651 0 137.981-86.156 137.403-165.214-0.496-93.253-49.019-157.622-137.899-157.622z"></path>
<path fill="#1b4d4a" d="M3334.581 174.846v385.556h-51.743v-385.556h25.913z"></path>
<path fill="#1b4d4a" d="M3550.713 383.386c-55.622-11.471-137.403-29.957-137.403-109.592 0-38.127 20.714-62.141 35.403-74.685 34.33-29.461 76.336-32.762 103.073-32.762 27.233 0 68.743 2.723 103.651 28.389 38.127 27.811 45.801 67.092 49.597 90.53l-51.825 3.301c-0.578-11.966-2.146-42.5-31.112-63.792-19.641-14.194-44.15-18.568-68.743-18.568-46.379 0-87.228 19.063-87.228 60.573 0 42.5 42.583 52.321 75.758 59.995l42.583 10.894c29.461 7.097 45.224 10.398 60.491 16.917 57.85 24.015 66.514 70.311 66.514 95.976 0 35.981-14.689 69.816-49.103 93.253-37.053 25.087-81.205 27.233-104.723 27.233-34.908 0-154.322-5.447-163.069-132.534l55.044-7.097c0.578 14.772 2.146 48.525 31.112 74.19 21.786 19.063 50.753 25.665 79.059 25.665 54.548 0 95.976-26.738 95.976-76.913 0-44.728-35.486-56.694-73.035-64.369l-32.020-6.602z"></path>
<path fill="#1b4d4a" d="M2848.593 367.706c0-121.724 89.54-201.938 200.783-201.938 69.651 0 117.68 30.452 151.598 72.539l-38.621 24.592c-24.592-31.607-66.102-53.888-112.976-53.888-85.413 0-150.443 64.947-150.443 158.613 0 92.51 64.947 158.613 150.443 158.613 46.792 0 85.496-22.282 105.385-42.17v-83.927h-110.5v-43.326h158.53v145.491c-36.311 40.932-89.54 67.918-153.331 67.918-111.244 0-200.865-81.287-200.865-202.516z"></path>
<path fill="#1b4d4a" d="M2186.167 514.601h201.36v45.801h-252.608v-385.556h51.248z"></path>
<path fill="#1b4d4a" d="M3814.462 262.405c-26.161-0.082-47.369-21.456-47.287-47.617s21.456-47.369 47.617-47.287 47.369 21.456 47.287 47.617c-0.082 26.161-21.456 47.369-47.617 47.287zM3814.71 174.846c-22.116-0.082-40.107 17.825-40.189 39.942s17.825 40.107 39.942 40.189c22.116 0.082 40.107-17.825 40.189-39.942 0.082-22.034-17.825-40.107-39.942-40.189z"></path>
<path fill="#1b4d4a" d="M3796.472 187.802h16.835c7.015 0.082 11.801 0.082 16.423 3.796 3.301 2.723 5.859 6.932 5.859 13.039 0 10.15-7.427 13.617-10.398 14.524l11.801 21.539h-11.306l-10.48-19.641h-8.83v19.641h-9.82v-52.898zM3806.292 196.385v16.587h3.466c3.383 0 4.621-0.082 6.519-0.166 2.146-0.082 9.325-0.412 9.325-8.17 0-1.156-0.082-5.034-4.209-7.097-2.146-1.073-4.621-1.156-10.48-1.156h-4.621z"></path>
<path fill="#1b4d4a" d="M1071.257 940.593h-85.248l-25.005 68.496h-31.69l85.248-223.725h31.029l81.452 223.725h-31.36l-24.427-68.496zM1062.345 915.588l-32.68-93.171-34.248 93.171h66.928z"></path>
<path fill="#1b4d4a" d="M1152.379 784.952h25.665v89.704c15.845-16.835 31.029-19.641 45.306-19.641 32.928 0 45.966 18.403 50.423 32.928 2.888 9.49 2.888 19.311 2.888 34.248v86.816h-25.665v-78.894c0-19.641 0-31.029-6.025-40.272-6.355-9.16-16.505-12.709-26.325-12.709-16.175 0-33.588 8.913-38.705 32.020-1.898 8.252-1.898 16.175-1.898 27.233v72.539h-25.665v-223.972z"></path>
<path fill="#1b4d4a" d="M1449.963 963.122c-3.466 10.15-16.835 50.423-67.506 50.423-44.398 0-73.199-30.121-73.199-80.544 0-56.447 40.602-77.986 72.291-77.986 27.563 0 56.777 15.185 65.608 52.898 2.888 12.709 2.888 24.097 2.888 30.452h-113.471c-0.66 25.005 12.709 56.116 48.195 56.116 22.53 0 35.156-14.937 39.612-34.826l25.583 3.466zM1422.318 920.292c-2.228-39.281-30.452-45.966-42.83-45.966-21.539 0-39.612 15.845-42.5 45.966h85.331z"></path>
<path fill="#1b4d4a" d="M1571.935 919.714v-3.796c0-15.515 0-41.51-33.588-41.51-32.020 0-32.020 23.437-32.020 31.36l-26.655-1.568c0.66-5.365 1.238-13.617 6.025-22.53 8.913-16.505 26.325-26.655 51.661-26.655 13.947 0 32.020 3.466 43.738 12.709 16.505 13.286 16.505 30.452 16.175 50.423v48.525c0.33 14.277 0.33 21.539 10.81 21.539 3.136 0 6.025-0.66 8.252-1.568v21.87c-4.126 0.99-8.583 2.558-15.845 2.558-11.718 0-23.437-3.796-25.995-22.2-7.592 7.922-22.86 24.427-51.331 24.427-29.131 0-50.753-17.413-50.753-42.83 0-7.922 2.228-15.845 6.685-22.53 8.583-12.709 24.427-22.86 69.073-26.325l23.767-1.898zM1532.983 942.821c-27.893 6.025-32.68 16.505-32.68 26.903 0 12.048 9.49 22.2 28.223 22.2 17.413 0 32.35-7.015 39.612-22.53 3.796-8.252 4.126-11.718 4.126-33.588-9.82 1.65-23.19 3.549-39.281 7.015z"></path>
<path fill="#1b4d4a" d="M1778.577 784.952v224.055h-25.335v-19.311c-6.025 7.262-19.971 23.767-51.331 23.767-43.078 0-68.496-32.35-68.496-79.884 0-58.345 38.044-78.564 68.166-78.564 9.82 0 34.578 2.228 51.661 24.427v-94.491h25.335zM1660.319 934.569c0 30.782 14.277 56.447 46.626 56.447 28.883 0 46.874-21.539 46.874-57.355 0-42.17-25.665-55.456-45.966-55.786-19.311-0.33-47.534 11.388-47.534 56.694z"></path>
<path fill="#1b4d4a" d="M1972.18 1013.545c-51.661 0-73.529-38.705-73.529-77.986 0-33.258 16.505-80.544 74.52-80.544 49.433 0 72.291 38.374 71.961 79.224-0.412 45.388-27.315 79.306-72.952 79.306zM2015.918 913.36c-5.695-29.461-25.005-38.044-42.17-38.044-33.918 0-47.534 26.325-47.534 60.573 0 31.36 13.039 57.355 45.636 57.355 42.17 0 45.306-43.738 45.636-58.923 0.33-9.573-0.66-16.505-1.568-20.962z"></path>
<path fill="#1b4d4a" d="M2111.234 859.801h28.223v20.878h-28.223v128.326h-24.427v-128.326h-25.005v-20.878h25.005l0.33-30.452c0.33-12.709 0.99-42.5 38.705-42.5 7.262 0 13.617 1.238 18.403 1.898v19.641c-4.787-0.66-10.48-1.238-13.947-1.238-18.733 0-18.981 14.937-18.981 26.655v25.995z"></path>
<path fill="#1b4d4a" d="M2357.818 859.801l35.486 110.914 38.951-110.914h26.655l-54.796 149.287h-22.2l-35.816-111.244-36.476 111.244h-23.107l-51.991-149.287h27.233l37.383 110.914 36.806-110.914h21.87z"></path>
<path fill="#1b4d4a" d="M2483.586 784.952h25.665v89.704c15.845-16.835 31.029-19.641 45.306-19.641 32.928 0 45.966 18.403 50.423 32.928 2.888 9.49 2.888 19.311 2.888 34.248v86.816h-25.665v-78.894c0-19.641 0-31.029-6.025-40.272-6.355-9.16-16.505-12.709-26.325-12.709-16.175 0-33.588 8.913-38.705 32.020-1.898 8.252-1.898 16.175-1.898 27.233v72.539h-25.665v-223.972z"></path>
<path fill="#1b4d4a" d="M2737.762 919.714v-3.796c0-15.515 0-41.51-33.588-41.51-32.020 0-32.020 23.437-32.020 31.36l-26.655-1.568c0.66-5.365 1.238-13.617 6.025-22.53 8.913-16.505 26.325-26.655 51.661-26.655 13.947 0 32.020 3.466 43.738 12.709 16.505 13.286 16.505 30.452 16.175 50.423v48.525c0.33 14.277 0.33 21.539 10.81 21.539 3.136 0 6.025-0.66 8.252-1.568v21.87c-4.126 0.99-8.583 2.558-15.845 2.558-11.718 0-23.437-3.796-25.995-22.2-7.592 7.922-22.776 24.427-51.331 24.427-29.131 0-50.753-17.413-50.753-42.83 0-7.922 2.228-15.845 6.685-22.53 8.583-12.709 24.427-22.86 69.073-26.325l23.767-1.898zM2698.81 942.821c-27.893 6.025-32.68 16.505-32.68 26.903 0 12.048 9.49 22.2 28.223 22.2 17.413 0 32.35-7.015 39.612-22.53 3.796-8.252 4.126-11.718 4.126-33.588-9.82 1.65-23.107 3.549-39.281 7.015z"></path>
<path fill="#1b4d4a" d="M2842.073 859.801h27.233v20.878h-27.233v85.578c0 17.743 0 25.335 10.81 25.335 4.787 0 11.388-1.898 16.505-3.466v20.878c-4.457 0.66-14.855 2.558-24.427 2.558-29.131 0-29.131-14.277-28.883-33.918v-96.967h-23.767v-20.878h23.767v-47.204h25.995v47.204z"></path>
<path fill="#1b4d4a" d="M2933.593 785.282v16.505c-0.33 31.029-4.457 44.976-12.956 67.836h-14.937c2.228-5.365 8.913-23.437 10.48-49.433h-13.947v-34.908h31.36z"></path>
<path fill="#1b4d4a" d="M3003.079 943.151c-24.097-5.695-53.558-12.378-53.558-43.408 0-27.233 23.107-44.398 57.685-44.398 28.553 0 58.923 13.617 64.039 48.772l-27.233 3.466c-0.33-9.16-0.99-16.505-10.81-24.097s-21.209-8.913-28.883-8.913c-19.641 0-29.461 11.718-29.461 21.87 0 14.277 16.175 18.733 35.816 23.437l14.277 3.466c17.743 4.126 49.763 11.718 49.763 43.078 0 24.427-21.539 47.204-62.719 47.204-16.835 0-34.248-3.466-46.296-12.048-4.787-3.466-19.311-15.515-22.2-40.602l28.553-4.457c-0.33 6.685-0.33 19.311 11.058 29.131 8.913 7.592 19.971 8.583 30.121 8.583 22.2 0 35.156-8.583 35.156-24.757 0-17.083-12.956-20.301-31.029-23.767l-14.277-2.558z"></path>
<path fill="#1b4d4a" d="M3215.003 859.801v21.87c13.947-24.427 37.713-26.655 46.626-26.655 18.981 0 41.84 9.49 49.103 34.248 2.558 8.913 2.558 18.073 2.558 30.782v89.044h-25.005v-84.918c0-15.185 0-19.641-1.568-24.757-4.457-14.277-18.403-20.631-32.020-20.631-11.058 0-20.631 3.466-28.553 11.388-11.058 11.058-11.058 22.53-11.058 33.588v85.248h-25.335v-149.287h25.253z"></path>
<path fill="#1b4d4a" d="M3487.912 963.122c-3.466 10.15-16.835 50.423-67.506 50.423-44.398 0-73.199-30.121-73.199-80.544 0-56.447 40.602-77.986 72.291-77.986 27.563 0 56.694 15.185 65.608 52.898 2.806 12.709 2.806 24.097 2.806 30.452h-113.471c-0.66 25.005 12.709 56.116 48.195 56.116 22.53 0 35.156-14.937 39.612-34.826l25.665 3.466zM3460.348 920.292c-2.228-39.281-30.452-45.966-42.748-45.966-21.539 0-39.612 15.845-42.5 45.966h85.248z"></path>
<path fill="#1b4d4a" d="M3591.481 859.801h28.553l-44.976 73.529 44.976 75.758h-28.553l-31.69-53.228-31.029 53.228h-28.801l46.626-75.758-44.068-73.529h29.131l29.791 51.331 30.039-51.331z"></path>
<path fill="#1b4d4a" d="M3684.981 859.801h27.233v20.878h-27.233v85.578c0 17.743 0 25.335 10.81 25.335 4.787 0 11.388-1.898 16.505-3.466v20.878c-4.457 0.66-14.855 2.558-24.427 2.558-29.131 0-29.131-14.277-28.883-33.918v-96.967h-23.767v-20.878h23.767v-47.204h25.995v47.204z"></path>
</svg>
